<?xml version="1.0" encoding="utf-8"?>
<!-- Generator: Adobe Illustrator 28.0.0, SVG Export Plug-In . SVG Version: 6.00 Build 0)  -->
<svg version="1.1" id="Layer_1" xmlns="http://www.w3.org/2000/svg" xmlns:xlink="http://www.w3.org/1999/xlink" x="0px" y="0px"
	 viewBox="0 0 2959.3 1701.3" enable-background="new 0 0 2959.3 1701.3" xml:space="preserve">
<g>
	<rect x="204.6" y="64.2" fill="#F5C781" width="2550.1" height="1407.9"/>
	<rect x="204.6" y="1466.9" fill="#F5C781" width="2550.1" height="86.8"/>
	<path fill="#EF84BA" d="M2110.4,1563.2l-194.6-52.8c-5.9-1.6-9.5-7.8-7.9-13.7l3.7-13.6c1.6-5.9,7.8-9.5,13.7-7.9l194.6,52.8
		c5.9,1.6,9.5,7.8,7.9,13.7l-3.7,13.6C2122.5,1561.3,2116.3,1564.8,2110.4,1563.2z"/>
	<g>
		<g>
			<polygon fill="#774D15" points="2754.4,224.4 2722.1,192.1 2722.1,95.3 2625.3,95.3 2593,63 2754.4,63 			"/>
		</g>
		<g>
			<polygon fill="#774D15" points="200,224.4 232.3,192.1 232.3,95.3 329.1,95.3 361.4,63 200,63 			"/>
		</g>
	</g>
	<g>
		<g>
			<polygon fill="#774D15" points="2754.4,1388.3 2722.1,1420.5 2722.1,1517.4 2625.3,1517.4 2593,1549.7 2754.4,1549.7 			"/>
		</g>
		<g>
			<polygon fill="#774D15" points="200,1388.3 232.3,1420.5 232.3,1517.4 329.1,1517.4 361.4,1549.7 200,1549.7 			"/>
		</g>
	</g>
	
		<radialGradient id="SVGID_1_" cx="1351.1837" cy="8403.5381" r="441.3167" gradientTransform="matrix(2.6296 0 0 8.940000e-02 -2090.1196 809.4299)" gradientUnits="userSpaceOnUse">
		<stop  offset="0" style="stop-color:#E6E6E6"/>
		<stop  offset="0.9014" style="stop-color:#FCFCFC"/>
		<stop  offset="1" style="stop-color:#FFFFFF"/>
	</radialGradient>
	<ellipse fill="url(#SVGID_1_)" cx="1463" cy="1560.7" rx="1160.3" ry="39.5"/>
	<rect x="109.6" y="1551.4" fill="#F5C781" width="2740.1" height="86.8"/>
	<rect x="109.6" y="1551.4" fill="#FCD99D" width="2740.1" height="20.4"/>
	<g>
		<rect x="302.7" y="167.4" fill="#294F34" width="2353.9" height="24.5"/>
		<rect x="302.7" y="191.9" fill="#74A568" width="2353.9" height="1275"/>
	</g>
	<path fill="#FFFFFF" d="M1667.7,1551.6h-207.2c-6.3,0-11.5-5.2-11.5-11.5v-14.5c0-6.3,5.2-11.5,11.5-11.5h207.2
		c6.3,0,11.5,5.2,11.5,11.5v14.5C1679.2,1546.4,1674,1551.6,1667.7,1551.6z"/>
	<path fill="#FFFFFF" d="M1929.3,1551.6h-207.2c-6.3,0-11.5-5.2-11.5-11.5v-14.5c0-6.3,5.2-11.5,11.5-11.5h207.2
		c6.3,0,11.5,5.2,11.5,11.5v14.5C1940.8,1546.4,1935.6,1551.6,1929.3,1551.6z"/>
	<g>
		<g>
			<path fill="#FFDE28" d="M962.1,1550.7c3.5-7.5,5.5-16,5.5-24.9c0-30.1-22.4-54.8-49.8-54.8h-103c-27.4,0-49.8,24.7-49.8,54.8
				c0,9,2,17.4,5.5,24.9H962.1z"/>
			<path fill="#DAB030" d="M874.9,1516c-6.7,0-6.7,10.4,0,10.4C881.6,1526.4,881.6,1516,874.9,1516z"/>
			<path fill="#DAB030" d="M784.7,1492.6c-7,0-7.1,10.9,0,10.9C791.8,1503.5,791.8,1492.6,784.7,1492.6z"/>
			<path fill="#DAB030" d="M887.1,1528.8c-0.3,0.1-0.6,0.1-0.9,0.2c-6,1.3-6,10.9,0,12.2c0.3,0.1,0.6,0.1,0.9,0.2
				c4.1,0.9,8.2-1.9,8.2-6.3C895.3,1530.7,891.2,1527.9,887.1,1528.8z"/>
			<path fill="#DAB030" d="M830.5,1520.1c-7.5,0-7.5,11.6,0,11.6C838,1531.7,838,1520.1,830.5,1520.1z"/>
			<path fill="#DAB030" d="M860.9,1511c-6.4,0-6.4,9.9,0,9.9C867.3,1520.9,867.3,1511,860.9,1511z"/>
			<path fill="#DAB030" d="M809.9,1516.1c-0.3,0-0.6,0.1-0.9,0.1c-5.5,0.8-5.5,10.3,0,11.1c0.3,0,0.6,0.1,0.9,0.1
				C819.4,1528.8,819.5,1514.6,809.9,1516.1z"/>
			<path fill="#DAB030" d="M846,1501.6c-0.3,0-0.6,0.1-0.9,0.1c-5.5,0.8-5.5,10.3,0,11.1c0.3,0,0.6,0.1,0.9,0.1
				C855.5,1514.4,855.6,1500.2,846,1501.6z"/>
			<path fill="#DAB030" d="M791.3,1509c-0.3,0.1-0.6,0.1-0.9,0.2c-6,1.3-6,10.9,0,12.2c0.3,0.1,0.6,0.1,0.9,0.2
				c4.1,0.9,8.2-1.9,8.2-6.3C799.6,1510.9,795.4,1508.2,791.3,1509z"/>
			<path fill="#DAB030" d="M827.4,1495.2c-0.3,0-0.6,0-0.9,0c-11.7-0.6-11.7,18.7,0,18.2c0.3,0,0.6,0,0.9,0
				C839,1512.7,839.1,1495.7,827.4,1495.2z"/>
			<path fill="#DAB030" d="M849,1523.1c-10.7,0-10.7,16.7,0,16.7C859.8,1539.8,859.8,1523.1,849,1523.1z"/>
			<path fill="#DAB030" d="M846.2,1480.7c-0.3,0.1-2.5,0.9-2.8,1c-6,1.3-4.1,10.1,1.9,11.4c0.3,0.1,0.6,0.1,0.9,0.2
				c4.1,0.9,8.2-1.9,8.2-6.3C854.5,1482.6,850.3,1479.9,846.2,1480.7z"/>
			<path fill="#DAB030" d="M797.3,1530.8c-0.3,0.1-0.6,0.1-0.9,0.2c-6,1.3-6,10.9,0,12.2c0.3,0.1,0.6,0.1,0.9,0.2
				c4.1,0.9,8.2-1.9,8.2-6.3C805.6,1532.7,801.4,1529.9,797.3,1530.8z"/>
			<path fill="#DAB030" d="M892.6,1506.2c-8.9,0-9,13.9,0,13.9C901.6,1520.1,901.6,1506.2,892.6,1506.2z"/>
			<path fill="#DAB030" d="M915,1532.7c-0.5-1.7-1.1-3.1-2.5-4.2c-2.5-2.2-5.9-2.3-8.5,0c-1.3,1.2-2,2.6-2.5,4.2
				c-1.3,4.4,2.3,8.8,6.7,8.8C912.8,1541.5,916.3,1537.1,915,1532.7z"/>
			<path fill="#DAB030" d="M929.2,1513.2c-8.8,0-8.8,13.7,0,13.7C938.1,1527,938.1,1513.2,929.2,1513.2z"/>
			<path fill="#DAB030" d="M929.1,1493.1c-1.3-1.5-2.7-2.2-4.5-2.9c-3.7-1.4-8.1,3-6.6,6.6c0.7,1.9,1.4,3.2,2.9,4.5
				C926.6,1506.3,934.1,1498.8,929.1,1493.1z"/>
			<path fill="#DAB030" d="M912,1504.2c-7.9,0-7.9,12.3,0,12.3C920,1516.5,920,1504.2,912,1504.2z"/>
			<path fill="#DAB030" d="M941.2,1496.3c-8.6,0-8.6,13.4,0,13.4C949.8,1509.7,949.8,1496.3,941.2,1496.3z"/>
			<path fill="#DAB030" d="M947.6,1521.2c-6,0-6,9.4,0,9.4C953.7,1530.6,953.7,1521.2,947.6,1521.2z"/>
			<path fill="#DAB030" d="M938.2,1535.4c-0.5-0.2-1-0.4-1.5-0.7c-3.3-1.5-7.4,0.3-7.4,4.3c0,4,4.1,5.8,7.4,4.3
				c0.5-0.2,1-0.5,1.5-0.7C940.9,1541.3,940.9,1536.6,938.2,1535.4z"/>
			<path fill="#DAB030" d="M777,1521.2c-7.3,0-7.3,11.3,0,11.3C784.3,1532.5,784.3,1521.2,777,1521.2z"/>
			<path fill="#DAB030" d="M804.9,1484.5c-7,0-7.1,10.9,0,10.9C811.9,1495.4,811.9,1484.5,804.9,1484.5z"/>
			<path fill="#DAB030" d="M815.3,1502.4c-0.2-0.6-0.4-1.1-0.7-1.7c-1.4-3.6-5.9-3.6-7.4,0c-0.2,0.6-0.4,1.1-0.7,1.7
				C803.7,1509.7,818.2,1509.7,815.3,1502.4z"/>
			<path fill="#DAB030" d="M826.9,1479.9c-6.8,0-6.8,10.6,0,10.6C833.7,1490.5,833.8,1479.9,826.9,1479.9z"/>
			<path fill="#DAB030" d="M865.7,1481.6c-6.9,0-6.9,10.8,0,10.8C872.6,1492.4,872.7,1481.6,865.7,1481.6z"/>
			<path fill="#DAB030" d="M892.6,1486.5c-7.9,0-7.9,12.3,0,12.3C900.6,1498.8,900.6,1486.5,892.6,1486.5z"/>
			<path fill="#DAB030" d="M908.3,1479.2c-7.6,0-7.6,11.8,0,11.8C915.9,1491.1,915.9,1479.2,908.3,1479.2z"/>
			<path fill="#DAB030" d="M866.3,1531.4c-7.3,0-7.3,11.3,0,11.3C873.6,1542.7,873.6,1531.4,866.3,1531.4z"/>
			<path fill="#DAB030" d="M819.4,1531.4c-7.3,0-7.3,11.3,0,11.3C826.7,1542.7,826.7,1531.4,819.4,1531.4z"/>
		</g>
		<path fill="#DAB030" d="M873.5,1494.6c-0.3,0.1-0.6,0.1-0.9,0.2c-6,1.3-6,10.9,0,12.2c0.3,0.1,0.6,0.1,0.9,0.2
			c4.1,0.9,8.2-1.9,8.2-6.3C881.7,1496.5,877.6,1493.8,873.5,1494.6z"/>
	</g>
</g>
</svg>
