<?xml version="1.0" encoding="utf-8"?>
<!-- Generator: Adobe Illustrator 24.1.2, SVG Export Plug-In . SVG Version: 6.00 Build 0)  -->
<svg version="1.1" id="_x5F_" xmlns="http://www.w3.org/2000/svg" xmlns:xlink="http://www.w3.org/1999/xlink" x="0px" y="0px"
	 viewBox="0 0 2951 1737" enable-background="new 0 0 2951 1737" xml:space="preserve">
<g>
	<rect x="109.3" y="64.3" fill="#CCA773" width="2732.4" height="1608.3"/>
	<g>
		<path fill="#A46D54" d="M217.1,180c-2,0-3.9-0.7-5.4-2.2l-87.1-85.1c-3.1-3-3.1-7.9-0.1-10.9c3-3.1,7.9-3.1,10.9-0.1l87.1,85.1
			c3.1,3,3.1,7.9,0.1,10.9C221.2,179.2,219.2,180,217.1,180z"/>
	</g>
	<g>
		<path fill="#A46D54" d="M130.1,1658.4c-2,0-4-0.8-5.5-2.3c-3-3.1-2.9-8,0.1-10.9l87.1-85.1c3.1-3,8-2.9,10.9,0.1
			c3,3.1,2.9,8-0.1,10.9l-87.1,85.1C134,1657.7,132,1658.4,130.1,1658.4z"/>
	</g>
	<g>
		<path fill="#A46D54" d="M2733,180c-2,0-4-0.8-5.5-2.3c-3-3.1-2.9-8,0.1-10.9l87.1-85.1c3.1-3,8-2.9,10.9,0.1c3,3.1,2.9,8-0.1,10.9
			l-87.1,85.1C2736.9,179.3,2734.9,180,2733,180z"/>
	</g>
	<g>
		<path fill="#A46D54" d="M2820,1658.4c-1.9,0-3.9-0.7-5.4-2.2l-87.1-85.1c-3.1-3-3.1-7.9-0.1-10.9c3-3,7.9-3.1,10.9-0.1l87.1,85.1
			c3.1,3,3.1,7.9,0.1,10.9C2824.1,1657.6,2822.1,1658.4,2820,1658.4z"/>
	</g>
	<path fill="#425147" d="M186.7,1575.4V161.6c0-11,8.9-19.8,19.8-19.8h2538c11,0,19.8,8.9,19.8,19.8v1413.8c0,11-8.9,19.8-19.8,19.8
		h-2538C195.6,1595.2,186.7,1586.3,186.7,1575.4z"/>
	<path fill="#F0CF95" d="M206,1595.2h2538.9c10.7,0,19.5-8.7,19.5-19.5v-32H186.9v32.4C186.9,1586.7,195.5,1595.2,206,1595.2z"/>
	<g opacity="3.000000e-02">
		<path fill="#FFFFFF" d="M2286.7,490.2c-29.6-30.8-64.3-66.9-104.6-83.1c-138.3-55.5-291.6-89.1-438.7-110.6
			c-152.2-22.2-304.5-17.9-456.3,3.8c-150.6,21.5-297.7,60.3-444.7,98.3c-78.4,20.3-157.1,39.8-234.9,62.2
			c-35.8,10.3-71.7,20.7-107.5,31c-38.9,11.2-81.1,17.6-107.7,50c-8.1,9.9,52.1,61.6,63.4,63.2c79,11.2,157.8-11.9,235.4-26.3
			c82.8-15.4,165.1-32.8,247.4-50.3c152-32.3,304-67.2,457.9-89.7c156-22.8,312.6-24.6,468.7-1.7c78.9,11.6,156.9,29.4,233.9,50.2
			c76.8,20.7,151,50.3,227.8,70.5C2346.5,562.9,2289.9,493.5,2286.7,490.2z"/>
		<path fill="#FFFFFF" d="M2569.5,377.5c-11.9-12.4-32.7-37.5-51.1-40.6c-345.2-58.5-701.2-31.4-1041.1,46.3
			c-158,36.2-312.4,84.9-463.4,143.7c-75.2,29.2-149.2,61.3-222.4,95.3c-73,33.8-158.6,66-222.6,115.2c-0.1,2.4-0.3,4.7-0.4,7.1
			c1.2,4.7,2.4,9.3,3.5,14c8.4,33.2,50.1,67,73.4,89.2c20.8,19.8,66.3,72.2,99.1,68.3c32.5-3.8,69.5-33.3,98.5-48.9
			c35.3-18.9,71.1-37.1,107-54.9c71.8-35.7,144.8-68.7,218.7-99.8c146.9-61.8,298.4-114.3,451.8-157.4
			c157.4-44.2,319-76.4,480.9-98.7c162-22.3,324.8-32.2,487.6-46C2600,409.5,2572,380.1,2569.5,377.5z"/>
		<path fill="#FFFFFF" d="M2616,637.6c-17-19.5-38.3-42.6-61.8-54.2c-224.3-110.5-486-117.2-726.6-62.4
			c-109.2,24.9-214.8,64.2-316.1,111.6c-52.8,24.7-103.7,53.4-153.7,83.3c-25,15-49.5,30.8-73.8,46.8c-23.3,15.3-52.5,30-67.9,53.4
			c-13.4,20.4,64.3,88.2,75,98.4c16.8,16,73.3,79.4,101.9,70.2c47.5-15.3,93.1-59.8,135.5-86.8c44.9-28.6,91.3-54.8,138.5-79.4
			c98.2-51.3,200.8-93.1,307.4-123.6c112.8-32.2,228.7-47.5,345.6-52.3c104.3-4.3,205.2,18.4,308.6,21.8
			C2640.3,664.9,2617.6,639.4,2616,637.6z"/>
		<path fill="#FFFFFF" d="M1814,1001.5c-12.7-13.3-36.3-41.7-56.1-44.6c-439.8-62.8-944.7-100.5-1335.1,156.4
			c-15.1,9.9,144.1,184.6,182.5,181.7c11.4-0.9,15.8,1.6,21.5-8.5c0.2-0.4,0.2-0.8,0.4-1.2c170.2-103.8,358.4-166.1,555.1-197.3
			c215.4-34.1,435.8-35.3,653.1-50.4C1847.5,1036.8,1816.6,1004.2,1814,1001.5z"/>
		<path fill="#FFFFFF" d="M2530.7,884c47.8-8.9,102.6-17.4,147-37.2c6.5-2.9-64.3-75.6-79.3-78.9c-225.6-49.8-478.2,9.7-690.3,89.4
			c-216.6,81.3-411,208-575.1,370.8c-17.1,16.9,148.8,193.6,182.9,174.4c76.1-42.9,154.3-81.8,234-116.5
			c11.4,38.5,149.6,179.5,179.3,162.4c98.6-56.5,202-102.8,309.8-139c105.9-35.5,214.1-54,321.5-82.7c10.1-2.7-45.2-66.5-47.1-68.5
			c-18.9-19.7-39-38.4-60.3-55.4c15.7-5.6,31.5-11,47.4-16c11.3-3.5-48.5-71.4-50.6-73.6c-21.2-22-43.7-43-67.7-61.9
			c-5.9-4.7-21.3-18.6-34.2-25.6c10.4-2.9,20.9-5.7,31.3-8.4C2429.1,904.4,2479.9,893.5,2530.7,884z"/>
		<path fill="#FFFFFF" d="M1382.2,1084.7c-16.3-15.5-64.4-69.6-94.9-70.9c-0.1,0-0.1-0.1-0.2-0.1c-0.1,0-0.2,0-0.2,0
			c-2.3-0.1-4.4,0.1-6.5,0.7c0.2,0.1,0.3,0.1,0.5,0.1c-5.1,0.8-10.1,2-15,4c-24.1,6.8-48.2,13.7-72.4,20.5
			c-44.1,12.5-85.2,27.7-125,50.7c-78,45.1-183,104.8-206.9,196.8c-5.1,19.7,70.6,91.8,90.1,89.7c90.8-9.6,163.8-64.1,242.8-106.1
			c83.1-44.2,172.4-63.1,262.7-87.2C1469.2,1179.9,1386.3,1088.6,1382.2,1084.7z"/>
		<path fill="#FFFFFF" d="M655.9,247.9c-87,13.2-170.4,36.9-249.3,76c-33.3,16.5-63,40.7-90.7,65.1c-13.8,12.2-26.5,25.5-38.9,39
			c-16.1,17.4-17.5,23-17.1,46.3c0.4,23,45,58.5,59.4,72.2c16,15.2,54.6,59.5,80.3,55.4c30.5-4.9,51-42.1,72.8-63.6
			c26.6-26.2,57-46.9,87.1-68.6c63.4-45.7,130.2-80,184.9-137.4C754.6,321.4,673.5,245.2,655.9,247.9z"/>
	</g>
	<g opacity="3.000000e-02">
		<path fill="#FFFFFF" d="M651.2,1207.4c29.6,30.8,64.3,66.9,104.7,83.1c138.3,55.5,291.6,89.1,438.7,110.6
			c152.2,22.2,304.5,17.9,456.3-3.8c150.6-21.5,297.7-60.3,444.7-98.3c78.4-20.3,157.1-39.8,234.9-62.2
			c35.8-10.3,71.7-20.7,107.5-31c38.9-11.2,81.1-17.6,107.7-50c8.1-9.9-52.2-61.6-63.4-63.2c-79-11.2-157.8,11.9-235.4,26.3
			c-82.8,15.4-165.1,32.8-247.4,50.3c-152,32.3-304,67.2-457.9,89.7c-156,22.8-312.6,24.6-468.7,1.7C994,1249,916,1231.1,839,1210.3
			c-76.8-20.7-151-50.3-227.8-70.5C591.5,1134.7,648.1,1204.1,651.2,1207.4z"/>
		<path fill="#FFFFFF" d="M368.5,1320.1c11.9,12.4,32.7,37.5,51.1,40.6c345.2,58.5,701.2,31.4,1041.1-46.4
			c158-36.2,312.4-84.9,463.4-143.7c75.2-29.2,149.2-61.3,222.4-95.3c73-33.8,158.6-66,222.6-115.2c0.1-2.4,0.3-4.7,0.4-7.1
			c-1.2-4.7-2.4-9.3-3.5-14c-8.4-33.2-50.1-67-73.4-89.2c-20.8-19.8-66.3-72.2-99.1-68.3c-32.5,3.8-69.5,33.3-98.5,48.9
			c-35.3,18.9-71.1,37.1-107,54.9c-71.8,35.7-144.8,68.7-218.7,99.8c-146.9,61.8-298.4,114.3-451.8,157.4
			c-157.4,44.2-319,76.4-480.9,98.7c-162,22.3-324.8,32.2-487.6,46C337.9,1288.1,366,1317.5,368.5,1320.1z"/>
		<path fill="#FFFFFF" d="M321.9,1059.9c17,19.5,38.3,42.6,61.8,54.2c224.3,110.5,486,117.2,726.6,62.4
			c109.2-24.9,214.8-64.2,316.1-111.6c52.8-24.7,103.7-53.4,153.7-83.3c25-15,49.5-30.8,73.8-46.8c23.3-15.3,52.5-30,67.9-53.4
			c13.4-20.4-64.3-88.2-75-98.4c-16.8-16-73.3-79.4-101.9-70.2c-47.5,15.3-93.1,59.8-135.5,86.8c-44.9,28.6-91.3,54.8-138.5,79.4
			c-98.2,51.3-200.8,93.1-307.4,123.6C850.8,1034.8,735,1050,618,1054.9c-104.3,4.3-205.2-18.4-308.6-21.8
			C297.7,1032.7,320.4,1058.1,321.9,1059.9z"/>
		<path fill="#FFFFFF" d="M1124,696.1c12.7,13.3,36.3,41.7,56.1,44.6c439.8,62.8,944.7,100.5,1335.1-156.4
			c15.1-9.9-144.1-184.6-182.5-181.7c-11.4,0.9-15.8-1.6-21.5,8.5c-0.2,0.4-0.2,0.8-0.4,1.2c-170.2,103.8-358.4,166.1-555.1,197.3
			c-215.4,34.1-435.8,35.3-653.1,50.4C1090.4,660.7,1121.3,693.3,1124,696.1z"/>
		<path fill="#FFFFFF" d="M407.2,813.5c-47.8,8.9-102.6,17.4-147,37.2c-6.5,2.9,64.3,75.6,79.3,78.9
			c225.6,49.8,478.2-9.7,690.3-89.4c216.6-81.3,411-208,575.1-370.8c17.1-16.9-148.8-193.6-182.9-174.4
			c-76.1,42.9-154.3,81.8-234,116.5c-11.4-38.5-149.6-179.5-179.3-162.4c-98.6,56.5-202,102.8-309.8,139
			c-105.9,35.5-214.1,54-321.5,82.7c-10.1,2.7,45.2,66.5,47.1,68.5c18.9,19.7,39,38.4,60.3,55.4c-15.7,5.6-31.5,11-47.4,16
			c-11.3,3.5,48.5,71.4,50.6,73.6c21.2,22,43.7,43,67.7,61.9c5.9,4.7,21.3,18.6,34.2,25.6c-10.4,2.9-20.9,5.7-31.3,8.4
			C508.8,793.1,458,804,407.2,813.5z"/>
		<path fill="#FFFFFF" d="M1555.8,612.8c16.3,15.5,64.4,69.6,94.9,70.9c0.1,0,0.1,0.1,0.2,0.1c0.1,0,0.2,0,0.2,0
			c2.3,0.1,4.4-0.1,6.5-0.7c-0.2-0.1-0.3-0.1-0.5-0.1c5.1-0.8,10.1-2,15-4c24.1-6.8,48.2-13.7,72.4-20.5
			c44.1-12.5,85.2-27.7,125-50.7c78-45.1,183-104.8,206.9-196.8c5.1-19.7-70.6-91.8-90.1-89.7c-90.8,9.6-163.8,64.1-242.8,106.1
			c-83.1,44.2-172.4,63.1-262.7,87.2C1468.8,517.7,1551.7,608.9,1555.8,612.8z"/>
		<path fill="#FFFFFF" d="M2282,1449.7c87-13.2,170.4-36.9,249.3-76c33.3-16.5,63-40.7,90.7-65.1c13.8-12.2,26.5-25.5,38.9-39
			c16.1-17.4,17.5-23,17.1-46.3c-0.4-23-45-58.5-59.4-72.2c-16-15.2-54.6-59.5-80.3-55.4c-30.5,4.9-51,42.1-72.8,63.6
			c-26.6,26.2-57,46.9-87.1,68.6c-63.4,45.7-130.2,80-184.9,137.4C2183.3,1376.1,2264.4,1452.3,2282,1449.7z"/>
	</g>
</g>
</svg>
